<svg xmlns="http://www.w3.org/2000/svg" viewBox="0 0 128 128"><title>about</title><g id="about.svg"><g opacity="0.01"><path d="M64,128a64,64,0,1,1,64-64A64,64,0,0,1,64,128ZM85.33,90.67A2.63,2.63,0,0,0,82.67,88h-8V45.33A2.63,2.63,0,0,0,72,42.67H45.33a2.63,2.63,0,0,0-2.67,2.67V58.67a2.63,2.63,0,0,0,2.67,2.67h8V88h-8a2.63,2.63,0,0,0-2.67,2.67V104a2.63,2.63,0,0,0,2.67,2.67H82.67A2.63,2.63,0,0,0,85.33,104ZM74.67,16A2.63,2.63,0,0,0,72,13.33H56A2.63,2.63,0,0,0,53.33,16V29.33A2.63,2.63,0,0,0,56,32H72a2.63,2.63,0,0,0,2.67-2.67Z" fill="#d8d8d8"/></g></g></svg>