<svg id="Layer_1" data-name="Layer 1" xmlns="http://www.w3.org/2000/svg" viewBox="0 0 222 256"><defs><style>.cls-1{opacity:0.1;}.cls-2{fill:#d8d8d8;}</style></defs><title>SNuDuD</title><g class="cls-1"><path class="cls-2" d="M202.64,200.56H19.35a18.35,18.35,0,0,1-15.88-27.5L95.12,14.16a18.35,18.35,0,0,1,31.76,0l91.64,158.9A18.35,18.35,0,0,1,202.64,200.56ZM93.43,162.78A17.57,17.57,0,1,0,111,145.21,17.57,17.57,0,0,0,93.43,162.78ZM97.15,123a4.58,4.58,0,0,0,4.58,4.33h18.54a4.59,4.59,0,0,0,4.58-4.33l2.83-78.94a4.59,4.59,0,0,0-4.58-4.84H98.89a4.58,4.58,0,0,0-4.57,4.84Z"/></g></svg>