<svg id="Layer_1" data-name="Layer 1" xmlns="http://www.w3.org/2000/svg" viewBox="0 0 32 32"><defs><style>.cls-1{fill:#d8d8d8;}</style></defs><title>Android</title><path class="cls-1" d="M23.83,10.9A15.71,15.71,0,0,1,32,23.47H0A15.69,15.69,0,0,1,8.17,10.9L5.51,6.3A.69.69,0,0,1,5.42,6,.56.56,0,0,1,6,5.43a.62.62,0,0,1,.5.31l2.69,4.67A19.87,19.87,0,0,1,16,8.94a19.87,19.87,0,0,1,6.84,1.47l2.69-4.67a.61.61,0,0,1,.5-.31.56.56,0,0,1,.55.56.69.69,0,0,1-.09.31Zm-15.18,8a1.34,1.34,0,1,0-1.33-1.34A1.34,1.34,0,0,0,8.65,18.92Zm14.7,0A1.34,1.34,0,1,0,22,17.58,1.33,1.33,0,0,0,23.35,18.92Z"/></svg>