<svg id="Layer_1" data-name="Layer 1" xmlns="http://www.w3.org/2000/svg" viewBox="0 0 32 32"><defs><style>.cls-1{fill:#d8d8d8;}</style></defs><title>FreeBSD</title><path class="cls-1" d="M2.41,8.4C.93,5.81-.76,2,.42.86s4.85.46,7.44,1.93A15.83,15.83,0,0,0,2.41,8.4ZM29.81,9a15.36,15.36,0,1,1-6.3-6.09c-.52.28-1,.57-1.4.83C20.25,3.39,19.76,4.9,21,7.2c1.56,3.07,6.35,6.44,7.8,5A1.85,1.85,0,0,0,29,10.33C29.27,9.94,29.53,9.49,29.81,9Zm1.81-8c1.69,1.69-3,9.13-3.8,9.92S25,11,23.32,9.29s-2.43-3.71-1.63-4.5S29.93-.7,31.62,1Z"/></svg>