<svg id="Layer_1" data-name="Layer 1" xmlns="http://www.w3.org/2000/svg" viewBox="0 0 32 32"><defs><style>.cls-1{fill:#d8d8d8;}</style></defs><title>iOS</title><path class="cls-1" d="M29.25,23.3c-.86,2.59-3.8,8.34-7.22,8.39-2,0-3.13-1.26-5.37-1.26s-3.56,1.22-5.33,1.26c-3.39.1-6.64-6.22-7.54-8.81a17.59,17.59,0,0,1-1-5.7c0-6.24,4.17-9.31,8.09-9.37,1.9,0,4.32,1.39,5.38,1.39S20,7.54,22.47,7.74a7.5,7.5,0,0,1,6,3.14,6.54,6.54,0,0,0-3.51,6A7,7,0,0,0,29.25,23.3ZM16,7.71a6.74,6.74,0,0,1,1.8-5.06A7.42,7.42,0,0,1,22.62.2a6.64,6.64,0,0,1-1.69,5.09A5.92,5.92,0,0,1,16,7.71Z"/></svg>