<svg id="Layer_1" data-name="Layer 1" xmlns="http://www.w3.org/2000/svg" viewBox="0 0 32 32"><defs><style>.cls-1{fill:#d8d8d8;}</style></defs><title>Linux C++</title><path class="cls-1" d="M29.13,27a1.5,1.5,0,0,1-.86,1.14c-.92.56-2.32,1-3.16,2a4.52,4.52,0,0,1-3,1.73,2.48,2.48,0,0,1-2.5-1.43h0a2.14,2.14,0,0,1-.16-.42c-1.33.08-2.49-.33-3.42-.25-1.37.07-2.22.4-3,.41a2.24,2.24,0,0,1-1.61,1.25A5.23,5.23,0,0,1,8,30.78,13,13,0,0,0,4.27,30,1.68,1.68,0,0,1,3,29.24a2.49,2.49,0,0,1,.14-2A3.46,3.46,0,0,0,3.11,26,4.53,4.53,0,0,1,3,25.24a1.59,1.59,0,0,1,.18-.77,1.92,1.92,0,0,1,1.14-.9,2.76,2.76,0,0,0,1.06-.51,15.87,15.87,0,0,1,1-1.26,7.06,7.06,0,0,1,.39-3.31,19.77,19.77,0,0,1,3.6-6,7.2,7.2,0,0,0,1.4-4c.07-2-1.52-8.41,4.84-8.4,5,0,4.74,5.31,4.71,8.16,0,1.86,1,3.13,2.07,4.47a16.35,16.35,0,0,1,2.89,4.62,7.17,7.17,0,0,1,.23,4.91,1.15,1.15,0,0,1,.25.12,2.27,2.27,0,0,1,.25.18,2.4,2.4,0,0,1,.65,1.39,3.11,3.11,0,0,0,.45,1.23A2.76,2.76,0,0,1,29.13,27ZM10.27,25,9.05,22.8a2.15,2.15,0,0,0-1.36-1,1.1,1.1,0,0,0-1.1.43c-.3.31-.55.76-.89,1.11A2.68,2.68,0,0,1,4.49,24a1.38,1.38,0,0,0-.92.7,2.1,2.1,0,0,0-.06,1.24,3.41,3.41,0,0,1,0,1.49h0a2.16,2.16,0,0,0-.16,1.64c.49.95,2.89.38,4.75,1.36s4.51,1.06,4.67-1.12C12.94,28,10.86,26.25,10.27,25Zm9.55,2.23a9.8,9.8,0,0,0,.43-1.81A14,14,0,0,1,20.52,23a2.17,2.17,0,0,1,1.33-1.7C22,20,23,20,24.23,20.48s1.61,1,1.41,1.63h.26c.33-1.05-.88-1.74-1.9-2.17a4.59,4.59,0,0,0,0-2.21,7.71,7.71,0,0,0-2.18-3.67c-.15,0-.13.12.16.41.72.66,2.3,3,1.45,5.27a3,3,0,0,0-.68-.09,14,14,0,0,0-1.47-4A32.44,32.44,0,0,1,18.94,9.7a2.69,2.69,0,0,1-1.38.93,6.69,6.69,0,0,0-1,.56,2.28,2.28,0,0,1-2.63-.08,7.64,7.64,0,0,0-.79-.64l-.38-.25c-.12,2.35-1.7,5.3-2.44,7A10.66,10.66,0,0,0,9.47,21c-1.35-1.81-.36-4.12.16-5.12s.69-1.4.54-1.29A13.22,13.22,0,0,0,8.48,18.3a4.39,4.39,0,0,0,0,2.19A3.35,3.35,0,0,0,10,22.35a9.18,9.18,0,0,1,2.38,2,1.74,1.74,0,0,1,.46,1.54,1,1,0,0,1-1,.55c.3.38.64.81.9,1.22A6.11,6.11,0,0,0,19.82,27.24ZM12.35,9.31a1.79,1.79,0,0,0,.91.95c.49.29.75.72,1.24.93a1.67,1.67,0,0,0,.6.13c1.14.07,1.68-.7,2.37-.92a2.13,2.13,0,0,0,1.41-1.13c.2-.52-.13-.91-.65-1.13a10.56,10.56,0,0,1-1.4-.57A3,3,0,0,0,15.22,7a2.48,2.48,0,0,0-1.74.89l-.87.65A.66.66,0,0,0,12.35,9.31ZM12.93,8c.49-.35.43-.29.37-.34-.5-.43-.41-1.7.11-1.74s.67.66.6,1.22a1.9,1.9,0,0,1,.63-.29c.1-1.2-.56-2.08-1.19-2.08C12.28,4.78,12,7.11,12.93,8Zm-.18.89c.14,0,.17.22.26.31s.29.27.48.43a2.53,2.53,0,0,0,1.55.6,4.12,4.12,0,0,0,1.85-.64c.26-.14.59-.41.87-.6s.2-.34.37-.32.05.2-.19.41a6,6,0,0,1-.92.64,4.38,4.38,0,0,1-2,.68,2.76,2.76,0,0,1-1.69-.66c-.21-.16-.38-.33-.5-.44S12.66,8.9,12.75,8.9Zm1.52-1.15c0-.09.11-.15.19-.18a.39.39,0,0,1,.35,0s0,0,0,.07-.14.06-.21.1-.12.1-.19.1S14.27,7.81,14.27,7.75Zm1.32-.13s0,0,0-.07a.45.45,0,0,1,.34,0c.08,0,.21.09.2.18s-.12.09-.18.09-.13-.07-.19-.1S15.61,7.7,15.59,7.62Zm.21-.77a4.52,4.52,0,0,1,.81.27c-.13-.76.28-1.46.73-1.43s.86,1,.57,1.7a1.14,1.14,0,0,1-.25.28c.42.15.69.26.79.31a2.46,2.46,0,0,0,.26-2.51,1.42,1.42,0,0,0-2.73,0A2.5,2.5,0,0,0,15.8,6.85ZM27.86,25.44c-.62-.7-.45-2.06-1.06-2.58a1.73,1.73,0,0,0-1.4-.32,2.9,2.9,0,0,1-2.39,1,1.91,1.91,0,0,1-1.17-1.83l-.06,0a1.87,1.87,0,0,0-.85,1.31,13.64,13.64,0,0,0-.26,2.41A15.32,15.32,0,0,1,20.05,28,3.42,3.42,0,0,0,20,30.24a2,2,0,0,0,2.09,1.2,4.18,4.18,0,0,0,2.71-1.58C26.15,28.2,28.66,28,28.71,27,28.73,26.65,28.52,26.16,27.86,25.44Z"/></svg>