<svg id="Layer_1" data-name="Layer 1" xmlns="http://www.w3.org/2000/svg" viewBox="0 0 32 32"><defs><style>.cls-1{fill:#d8d8d8;}</style></defs><title>macOS</title><path class="cls-1" d="M8.84,8V4.5h.4v.6a1.25,1.25,0,0,1,1.25-.67,1.19,1.19,0,0,1,1.26.82,1.17,1.17,0,0,1,.49-.58,1.62,1.62,0,0,1,.91-.24A1.27,1.27,0,0,1,14.6,5.79V8h-.4V5.8c0-.7-.37-1-1.1-1a1,1,0,0,0-1.16,1.07V8h-.4V5.82a1,1,0,0,0-1.12-1.07A1.06,1.06,0,0,0,9.24,5.84V8Z"/><path class="cls-1" d="M15.41,7c0-.66.57-1,1.63-1h1.33v-.3c0-.59-.43-.94-1.23-.94s-1.17.33-1.22.77H15.5A1,1,0,0,1,16,4.74a2,2,0,0,1,1.16-.31c1.09,0,1.64.45,1.64,1.26V7.16c0,.45.12.57.45.57a1.06,1.06,0,0,0,.27,0V8a1.5,1.5,0,0,1-.37,0c-.47,0-.71-.26-.72-.8a1.53,1.53,0,0,1-1.56.84C15.93,8.07,15.41,7.68,15.41,7ZM18,7.4a1.17,1.17,0,0,0,.38-.87V6.32H17c-.85,0-1.23.23-1.23.7s.35.73,1.06.73A1.6,1.6,0,0,0,18,7.4Z"/><path class="cls-1" d="M19.89,6.25a1.73,1.73,0,0,1,1.92-1.82c1,0,1.6.44,1.7,1.15h-.4c-.1-.5-.56-.82-1.3-.82A1.35,1.35,0,0,0,20.3,6.25a1.36,1.36,0,0,0,1.5,1.5,1.18,1.18,0,0,0,1.29-.82h.41c-.11.69-.72,1.14-1.7,1.14A1.72,1.72,0,0,1,19.89,6.25Z"/><path class="cls-1" d="M13.52,12.87a7.91,7.91,0,0,1,2,5.68,7.57,7.57,0,0,1-2,5.61,7.06,7.06,0,0,1-5.25,2,7.19,7.19,0,0,1-5.29-2,7.68,7.68,0,0,1-2-5.61,8,8,0,0,1,2-5.68,7,7,0,0,1,5.31-2.09A6.94,6.94,0,0,1,13.52,12.87Zm-5.28-1c-3.64,0-5.88,2.31-5.88,6.65s2.24,6.51,5.88,6.51,5.87-2.29,5.87-6.51S11.84,11.9,8.24,11.9Z"/><path class="cls-1" d="M17.91,21.69h1.35c.06,2.29,1.6,3.39,5.1,3.39,3.19,0,4.8-1.19,4.8-3.1a2.24,2.24,0,0,0-1.1-2.05,11.23,11.23,0,0,0-3.9-1.1,12.92,12.92,0,0,1-4.51-1.36,3.05,3.05,0,0,1-1.41-2.77,3.26,3.26,0,0,1,1.59-2.78,7.9,7.9,0,0,1,4.44-1.1c3.72,0,5.86,1.41,5.94,3.85H28.85c-.09-1.76-1.69-2.75-4.58-2.75-3.06,0-4.68,1.15-4.68,2.73a2.12,2.12,0,0,0,1.05,1.94,11,11,0,0,0,3.68,1A13.27,13.27,0,0,1,29,19a3.07,3.07,0,0,1,1.47,2.88c0,2.53-2.2,4.27-6.14,4.27C20.14,26.18,18,24.68,17.91,21.69Z"/></svg>