<svg id="Layer_1" data-name="Layer 1" xmlns="http://www.w3.org/2000/svg" viewBox="0 0 32 32"><defs><style>.cls-1{fill:#d8d8d8;}</style></defs><title>ServerQuery</title><path class="cls-1" d="M3.25,13.41V23H1.65A1.59,1.59,0,0,1,.06,21.38h0V15h0a1.59,1.59,0,0,1,1.59-1.59h1.6ZM27.16,24.57A3.2,3.2,0,0,1,24,27.75H8a3.2,3.2,0,0,1-3.19-3.18V11h0a4,4,0,0,1,4-4h5.58V3.85a1.59,1.59,0,1,1,3.18,0V7h5.58a4,4,0,0,1,4,4h0ZM11.22,13a2,2,0,1,0,2,2A2,2,0,0,0,11.22,13ZM9.63,21.38V23h3.18V21.38Zm4.78,0V23h3.18V21.38ZM20.78,13a2,2,0,1,0,2,2A2,2,0,0,0,20.78,13Zm-1.59,8.37V23h3.19V21.38Zm12.75,0h0A1.59,1.59,0,0,1,30.35,23h-1.6V13.41h1.6A1.59,1.59,0,0,1,31.94,15h0Z"/></svg>