<svg xmlns="http://www.w3.org/2000/svg" viewBox="0 0 128 128"><title>move__ADDON</title><g id="move_ADDON_.svg" data-name="move (ADDON).svg"><path d="M77.33,64l29.58,29.58,12-12a5.24,5.24,0,0,1,5.83-1.17A5.4,5.4,0,0,1,128,85.33v37.33a5.37,5.37,0,0,1-5.33,5.33H85.33a5.34,5.34,0,0,1-4.92-3.33,5.14,5.14,0,0,1,1.17-5.75l12-12L64,77.33,34.42,106.92l12,12a5.14,5.14,0,0,1,1.17,5.75A5.34,5.34,0,0,1,42.67,128H5.33A5.37,5.37,0,0,1,0,122.67V85.33a5.34,5.34,0,0,1,3.33-4.92,5.14,5.14,0,0,1,5.75,1.17l12,12L50.67,64,21.08,34.42l-12,12A5.3,5.3,0,0,1,5.33,48a5.36,5.36,0,0,1-2-.42A5.34,5.34,0,0,1,0,42.67V5.33A5.37,5.37,0,0,1,5.33,0H42.67a5.34,5.34,0,0,1,4.92,3.33,5.14,5.14,0,0,1-1.17,5.75l-12,12L64,50.67,93.58,21.08l-12-12a5.14,5.14,0,0,1-1.17-5.75A5.34,5.34,0,0,1,85.33,0h37.33A5.37,5.37,0,0,1,128,5.33V42.67a5.4,5.4,0,0,1-3.25,4.92,6.18,6.18,0,0,1-2.08.42,5.3,5.3,0,0,1-3.75-1.58l-12-12Z" fill="#d8d8d8"/></g></svg>